UNKNOWN
version=1
nRows=100
nColumns=4
inDegrees=no
endheader
time	knee_angle_r	rect_fem_r	vasti_r
      0.00000000	   -119.99999986	      0.42755256	      0.25701323
      1.00000000	   -118.68686855	      0.42711559	      0.25654121
      2.00000000	   -117.37373723	      0.42667085	      0.25606278
      3.00000000	   -116.06060592	      0.42621815	      0.25557766
      4.00000000	   -114.74747460	      0.42575730	      0.25508560
      5.00000000	   -113.43434329	      0.42528815	      0.25458638
      6.00000000	   -112.12121198	      0.42481057	      0.25407981
      7.00000000	   -110.80808066	      0.42432447	      0.25356574
      8.00000000	   -109.49494935	      0.42382978	      0.25304404
      9.00000000	   -108.18181803	      0.42332645	      0.25251460
     10.00000000	   -106.86868672	      0.42281447	      0.25197737
     11.00000000	   -105.55555540	      0.42229385	      0.25143230
     12.00000000	   -104.24242409	      0.42176463	      0.25087939
     13.00000000	   -102.92929277	      0.42122685	      0.25031863
     14.00000000	   -101.61616146	      0.42068062	      0.24975009
     15.00000000	   -100.30303015	      0.42012602	      0.24917381
     16.00000000	    -98.98989883	      0.41956319	      0.24858991
     17.00000000	    -97.67676752	      0.41899227	      0.24799848
     18.00000000	    -96.36363620	      0.41841345	      0.24739968
     19.00000000	    -95.05050489	      0.41782691	      0.24679366
     20.00000000	    -93.73737357	      0.41723287	      0.24618063
     21.00000000	    -92.42424226	      0.41663157	      0.24556080
     22.00000000	    -91.11111094	      0.41602328	      0.24493442
     23.00000000	    -89.79797963	      0.41540830	      0.24430177
     24.00000000	    -88.48484831	      0.41478693	      0.24366315
     25.00000000	    -87.17171700	      0.41415952	      0.24301891
     26.00000000	    -85.85858569	      0.41352644	      0.24236940
     27.00000000	    -84.54545437	      0.41288807	      0.24171502
     28.00000000	    -83.23232306	      0.41223856	      0.24105621
     29.00000000	    -81.91919174	      0.41157612	      0.24039348
     30.00000000	    -80.60606043	      0.41089517	      0.23971677
     31.00000000	    -79.29292911	      0.41019631	      0.23902930
     32.00000000	    -77.97979780	      0.40948012	      0.23832824
     33.00000000	    -76.66666648	      0.40874708	      0.23761405
     34.00000000	    -75.35353517	      0.40799767	      0.23688718
     35.00000000	    -74.04040385	      0.40723235	      0.23614806
     36.00000000	    -72.72727254	      0.40645154	      0.23539708
     37.00000000	    -71.41414123	      0.40565566	      0.23463461
     38.00000000	    -70.10100991	      0.40484506	      0.23386100
     39.00000000	    -68.78787860	      0.40402013	      0.23307656
     40.00000000	    -67.47474728	      0.40318117	      0.23228158
     41.00000000	    -66.16161597	      0.40232849	      0.23147631
     42.00000000	    -64.84848465	      0.40146238	      0.23066098
     43.00000000	    -63.53535334	      0.40058307	      0.22983579
     44.00000000	    -62.22222202	      0.39969078	      0.22900090
     45.00000000	    -60.90909071	      0.39878570	      0.22815645
     46.00000000	    -59.59595939	      0.39786799	      0.22730253
     47.00000000	    -58.28282808	      0.39693781	      0.22643924
     48.00000000	    -56.96969677	      0.39599540	      0.22556678
     49.00000000	    -55.65656545	      0.39504100	      0.22468531
     50.00000000	    -54.34343414	      0.39407489	      0.22379504
     51.00000000	    -53.03030282	      0.39309732	      0.22289617
     52.00000000	    -51.71717151	      0.39210859	      0.22198891
     53.00000000	    -50.40404019	      0.39110898	      0.22107348
     54.00000000	    -49.09090888	      0.39009880	      0.22015010
     55.00000000	    -47.77777756	      0.38907834	      0.21921901
     56.00000000	    -46.46464625	      0.38804794	      0.21828043
     57.00000000	    -45.15151493	      0.38700791	      0.21733461
     58.00000000	    -43.83838362	      0.38595858	      0.21638179
     59.00000000	    -42.52525231	      0.38490030	      0.21542223
     60.00000000	    -41.21212099	      0.38383339	      0.21445616
     61.00000000	    -39.89898968	      0.38275821	      0.21348385
     62.00000000	    -38.58585836	      0.38167503	      0.21250548
     63.00000000	    -37.27272705	      0.38058393	      0.21152094
     64.00000000	    -35.95959573	      0.37948494	      0.21053013
     65.00000000	    -34.64646442	      0.37837810	      0.20953291
     66.00000000	    -33.33333310	      0.37726346	      0.20852917
     67.00000000	    -32.02020179	      0.37614110	      0.20751883
     68.00000000	    -30.70707048	      0.37501111	      0.20650179
     69.00000000	    -29.39393916	      0.37387364	      0.20547804
     70.00000000	    -28.08080785	      0.37272982	      0.20444843
     71.00000000	    -26.76767653	      0.37158135	      0.20341426
     72.00000000	    -25.45454522	      0.37042972	      0.20237658
     73.00000000	    -24.14141390	      0.36927613	      0.20133611
     74.00000000	    -22.82828259	      0.36812151	      0.20029328
     75.00000000	    -21.51515127	      0.36696653	      0.19924821
     76.00000000	    -20.20201996	      0.36581155	      0.19820068
     77.00000000	    -18.88888864	      0.36465694	      0.19715052
     78.00000000	    -17.57575733	      0.36350451	      0.19609935
     79.00000000	    -16.26262602	      0.36235632	      0.19504923
     80.00000000	    -14.94949470	      0.36121393	      0.19400176
     81.00000000	    -13.63636339	      0.36007840	      0.19295806
     82.00000000	    -12.32323207	      0.35895028	      0.19191876
     83.00000000	    -11.01010076	      0.35782958	      0.19088407
     84.00000000	     -9.69696944	      0.35671581	      0.18985372
     85.00000000	     -8.38383813	      0.35560701	      0.18882574
     86.00000000	     -7.07070681	      0.35449943	      0.18779552
     87.00000000	     -5.75757550	      0.35338974	      0.18675860
     88.00000000	     -4.44444418	      0.35227528	      0.18571107
     89.00000000	     -3.13131287	      0.35115409	      0.18464952
     90.00000000	     -1.81818156	      0.35002487	      0.18357104
     91.00000000	     -0.50505024	      0.34888698	      0.18247320
     92.00000000	      0.80808107	      0.34774593	      0.18136886
     93.00000000	      2.12121239	      0.34662357	      0.18027864
     94.00000000	      3.43434370	      0.34552616	      0.17921299
     95.00000000	      4.74747502	      0.34446739	      0.17818626
     96.00000000	      6.06060633	      0.34345942	      0.17721047
     97.00000000	      7.37373765	      0.34249860	      0.17628256
     98.00000000	      8.68686896	      0.34157457	      0.17539314
     99.00000000	     10.00000028	      0.34067719	      0.17453321
